*
G04 Mass Parameters ***
*
G04 Image ***
*
%INC:\USERS\JACK\DOCUMENTS\PROJECTS\001 INTERNET PROJECT\INTERNET0303_2LAYER.SST*%
%ICAS*%
%MOIN*%
%IPPOS*%
%ASAXBY*%
G74*%FSLAN2X34Y34*%
*
G04 Aperture Definitions ***
*
%AMTHERMAL24*
1,1,0.1080,0,0,*
1,0,0.0840,0,0,*
21,0,0.1080,0.0100,0,0,45.0*
21,0,0.1080,0.0100,0,0,135.0*%
%AMTHERMAL26*
1,1,0.1050,0,0,*
1,0,0.0810,0,0,*
21,0,0.1050,0.0100,0,0,135.0*
21,0,0.1050,0.0100,0,0,225.0*%
%AMTHERMAL28*
1,1,0.1050,0,0,*
1,0,0.0810,0,0,*
21,0,0.1050,0.0100,0,0,315.0*
21,0,0.1050,0.0100,0,0,45.0*%
%AMTHERMAL32*
1,1,0.1160,0,0,*
1,0,0.0920,0,0,*
21,0,0.1160,0.0100,0,0,225.0*
21,0,0.1160,0.0100,0,0,315.0*%
%AMTHERMAL34*
1,1,0.1160,0,0,*
1,0,0.0920,0,0,*
21,0,0.1160,0.0100,0,0,45.0*
21,0,0.1160,0.0100,0,0,135.0*%
%AMTHERMAL35*
1,1,0.1080,0,0,*
1,0,0.0840,0,0,*
21,0,0.1080,0.0100,0,0,315.0*
21,0,0.1080,0.0100,0,0,45.0*%
%AMTHERMAL37*
1,1,0.1080,0,0,*
1,0,0.0840,0,0,*
21,0,0.1080,0.0100,0,0,225.0*
21,0,0.1080,0.0100,0,0,315.0*%
%AMTHERMAL38*
1,1,0.0940,0,0,*
1,0,0.0700,0,0,*
21,0,0.0940,0.0100,0,0,45.0*
21,0,0.0940,0.0100,0,0,135.0*%
%ADD10C,0.0550*%
%ADD11C,0.0520*%
%ADD12R,0.0520X0.0520*%
%ADD13C,0.0580*%
%ADD14R,0.0750X0.3000*%
%ADD15C,0.0620*%
%ADD16R,0.0620X0.0620*%
%ADD17R,0.0580X0.0580*%
%ADD18C,0.0400*%
%ADD19C,0.0400*%
%ADD20C,0.0120*%
%ADD21C,0.0100*%
%ADD22C,0.0080*%
%ADD23C,0.0400*%
%ADD24THERMAL24*%
%ADD25C,0.0750*%
%ADD26THERMAL26*%
%ADD27C,0.0720*%
%ADD28THERMAL28*%
%ADD29R,0.0720X0.0720*%
%ADD30C,0.0780*%
%ADD31C,0.0820*%
%ADD32THERMAL32*%
%ADD33R,0.0820X0.0820*%
%ADD34THERMAL34*%
%ADD35THERMAL35*%
%ADD36R,0.0780X0.0780*%
%ADD37THERMAL37*%
%ADD38THERMAL38*%
%ADD39C,0.0700*%
%ADD40C,0.0250*%
%ADD41C,0.0700*%
%ADD42C,0.0560*%
%ADD43R,0.0560X0.0560*%
%ADD44C,0.0660*%
%ADD45R,0.0660X0.0660*%
%ADD46C,0.0590*%
%ADD47C,0.0450*%
%ADD48C,0.0450*%
%ADD49C,0.0010*%
%ADD50R,0.0700X0.4000*%
%ADD51R,0.0740X0.4040*%
%ADD52C,0.0150*%
%ADD53C,0.1200*%
%ADD54C,0.0500*%
%ADD55C,0.0200*%
%ADD56C,0.0500*%
%ADD57C,0.0500*%
%ADD58C,0.0540*%
%ADD59C,0.0540*%
*
G04 Plot Data ***
*
G54D21*
G01X0024873Y0041792D02*
X0025123D01*
X0025164Y0041681D01*
Y0041570D01*
X0025123Y0041459D01*
X0024873D01*
X0024831Y0041570D01*
Y0041681D01*
X0024998Y0042125D01*
X0024589D02*
Y0041570D01*
X0024548Y0041459D01*
X0024298D01*
X0024256Y0041570D01*
Y0042125D01*
X0021375Y0035444D02*
X0021042D01*
X0021209Y0035888D01*
X0021292D01*
Y0035221D01*
X0020800Y0035888D02*
Y0035333D01*
X0020759Y0035221D01*
X0020509D01*
X0020467Y0035333D01*
Y0035888D01*
X0023053Y0051734D02*
X0022719D01*
X0023053Y0052178D01*
Y0052289D01*
X0023011Y0052400D01*
X0022761D01*
X0022719Y0052289D01*
X0022186Y0051956D02*
Y0051845D01*
X0022228Y0051734D01*
X0022394D01*
X0022436Y0051845D01*
Y0052400D01*
X0022478D02*
X0022311D01*
X0023580Y0049684D02*
X0023414D01*
X0023497D02*
Y0050351D01*
X0023414Y0050240D01*
X0004992Y0035283D02*
X0005034Y0035171D01*
X0005284D01*
X0005325Y0035283D01*
Y0035505D01*
X0005242Y0035616D01*
X0004992D01*
Y0035838D01*
X0005325D01*
X0004750D02*
Y0035283D01*
X0004709Y0035171D01*
X0004459D01*
X0004417Y0035283D01*
Y0035838D01*
X0011923Y0047043D02*
X0012006Y0046932D01*
X0012173D01*
X0012256Y0047043D01*
Y0047154D01*
X0012089Y0047377D01*
X0012256Y0047599D01*
X0011923D01*
X0011681Y0047043D02*
X0011639Y0046932D01*
X0011389D01*
X0011348Y0047043D01*
Y0047488D01*
X0011389Y0047599D01*
X0011639D01*
X0011681Y0047488D01*
X0018706Y0046882D02*
X0018373D01*
X0018706Y0047327D01*
Y0047438D01*
X0018664Y0047549D01*
X0018414D01*
X0018373Y0047438D01*
X0018131Y0046993D02*
X0018089Y0046882D01*
X0017839D01*
X0017798Y0046993D01*
Y0047438D01*
X0017839Y0047549D01*
X0018089D01*
X0018131Y0047438D01*
X0031033Y0041042D02*
X0030589D01*
X0030811Y0040875D02*
Y0041208D01*
X0032569Y0039348D02*
X0032819Y0040015D01*
X0032485D01*
X0032244Y0039459D02*
X0032202Y0039348D01*
X0031952D01*
X0031910Y0039459D01*
Y0039904D01*
X0031952Y0040015D01*
X0032202D01*
X0032244Y0039904D01*
X0004033Y0043092D02*
X0003589D01*
X0003811Y0042925D02*
Y0043258D01*
X0002227Y0041781D02*
X0002477D01*
X0002519Y0041670D01*
Y0041559D01*
X0002477Y0041448D01*
X0002227D01*
X0002185Y0041559D01*
Y0041670D01*
X0002352Y0042115D01*
X0001944Y0041559D02*
X0001902Y0041448D01*
X0001652D01*
X0001610Y0041559D01*
Y0042004D01*
X0001652Y0042115D01*
X0001902D01*
X0001944Y0042004D01*
X0030783Y0026092D02*
X0030339D01*
X0030561Y0025925D02*
Y0026258D01*
X0032235Y0024409D02*
X0032277Y0024298D01*
X0032527D01*
X0032569Y0024409D01*
Y0024631D01*
X0032485Y0024743D01*
X0032235D01*
Y0024965D01*
X0032569D01*
X0031994Y0024409D02*
X0031952Y0024298D01*
X0031702D01*
X0031660Y0024409D01*
Y0024854D01*
X0031702Y0024965D01*
X0031952D01*
X0031994Y0024854D01*
X0003733Y0025792D02*
X0003289D01*
X0003511Y0025625D02*
Y0025958D01*
X0002369Y0024420D02*
X0002035D01*
X0002202Y0024865D01*
X0002285D01*
Y0024198D01*
X0001794Y0024309D02*
X0001752Y0024198D01*
X0001502D01*
X0001460Y0024309D01*
Y0024754D01*
X0001502Y0024865D01*
X0001752D01*
X0001794Y0024754D01*
X0009480Y0051783D02*
X0009564Y0051671D01*
X0009730D01*
X0009814Y0051783D01*
Y0051894D01*
X0009647Y0052116D01*
X0009814Y0052338D01*
X0009480D01*
X0008947Y0051894D02*
Y0051783D01*
X0008989Y0051671D01*
X0009155D01*
X0009197Y0051783D01*
Y0052338D01*
X0009239D02*
X0009072D01*
X0008653Y0049671D02*
X0008486D01*
X0008569D02*
Y0050338D01*
X0008486Y0050227D01*
X0027812Y0041684D02*
X0027645D01*
X0027729D02*
Y0042350D01*
X0027645Y0042239D01*
X0027195Y0042017D02*
X0027320Y0041684D01*
X0026987Y0042017D02*
X0027237D01*
X0027320Y0042128D01*
Y0042239D01*
X0027237Y0042350D01*
X0026987D01*
Y0041684D01*
X0015521Y0046346D02*
X0015354D01*
X0015438D02*
Y0047013D01*
X0015354Y0046902D01*
X0014863Y0046346D02*
Y0046680D01*
X0015029Y0047013D02*
X0014904Y0046680D01*
X0014821D01*
X0014696Y0047013D01*
X0026446Y0045846D02*
X0026279D01*
X0026363D02*
Y0046513D01*
X0026279Y0046402D01*
X0025954Y0045958D02*
X0025913Y0045846D01*
X0025663D01*
X0025621Y0045958D01*
Y0046402D01*
X0025663Y0046513D01*
X0025913D01*
X0025954Y0046402D01*
X0011080Y0004521D02*
X0010914D01*
X0010997D02*
Y0005188D01*
X0010914Y0005077D01*
X0010297Y0004744D02*
Y0004633D01*
X0010339Y0004521D01*
X0010505D01*
X0010547Y0004633D01*
Y0005188D01*
X0010589D02*
X0010422D01*
X0025444Y0026147D02*
X0025110D01*
X0025444Y0026592D01*
Y0026703D01*
X0025402Y0026814D01*
X0025152D01*
X0025110Y0026703D01*
X0024869Y0026814D02*
Y0026258D01*
X0024827Y0026147D01*
X0024577D01*
X0024535Y0026258D01*
Y0026814D01*
X0009360Y0026147D02*
X0009194D01*
X0009277D02*
Y0026814D01*
X0009194Y0026703D01*
X0008869Y0026814D02*
Y0026258D01*
X0008827Y0026147D01*
X0008577D01*
X0008535Y0026258D01*
Y0026814D01*
X0010542Y0029283D02*
X0010625Y0029171D01*
X0010792D01*
X0010875Y0029283D01*
Y0029394D01*
X0010709Y0029616D01*
X0010875Y0029838D01*
X0010542D01*
X0010300D02*
Y0029283D01*
X0010259Y0029171D01*
X0010009D01*
X0009967Y0029283D01*
Y0029838D01*
G54D22*
G01X0028364Y0040945D02*
X0028343Y0041000D01*
Y0041223D01*
X0028364Y0041278D01*
X0028489D01*
X0028510Y0041223D01*
Y0041000D01*
X0028489Y0040945D01*
X0028364D01*
X0028162Y0041278D02*
Y0040945D01*
X0028120Y0041000D01*
X0028037Y0041223D01*
X0027995Y0041278D01*
Y0040945D01*
X0027815Y0041278D02*
Y0041000D01*
X0027794Y0040945D01*
X0027669D01*
X0027648Y0041000D01*
Y0041278D01*
X0027467D02*
X0027342Y0040945D01*
X0027120Y0041112D02*
X0027141Y0041167D01*
Y0041223D01*
X0027120Y0041278D01*
X0026995D01*
X0026974Y0041223D01*
Y0041167D01*
X0026995Y0041112D01*
X0027120D01*
X0027141Y0041056D01*
Y0041000D01*
X0027120Y0040945D01*
X0026995D01*
X0026974Y0041000D01*
Y0041056D01*
X0026995Y0041112D01*
X0026793Y0040945D02*
X0026626D01*
X0026793Y0041167D01*
Y0041223D01*
X0026772Y0041278D01*
X0026647D01*
X0026626Y0041223D01*
X0026279Y0041000D02*
X0026321Y0040945D01*
X0026404D01*
X0026446Y0041000D01*
Y0041056D01*
X0026362Y0041167D01*
X0026446Y0041278D01*
X0026279D01*
X0026098Y0041056D02*
X0025931D01*
X0026098Y0040945D02*
Y0041112D01*
X0026036Y0041278D01*
X0025994D01*
X0025931Y0041112D01*
Y0040945D01*
X0025667Y0041112D02*
X0025751D01*
Y0041000D01*
X0025730Y0040945D01*
X0025605D01*
X0025584Y0041000D01*
Y0041223D01*
X0025605Y0041278D01*
X0025730D01*
X0025751Y0041223D01*
X0025361Y0041112D02*
X0025236D01*
X0025403Y0040945D02*
X0025236D01*
Y0041278D01*
X0025403D01*
X0025056Y0040945D02*
Y0041278D01*
X0025014Y0041223D01*
X0024972Y0041112D01*
X0024931Y0041223D01*
X0024889Y0041278D01*
Y0040945D01*
X0024625D02*
Y0041278D01*
X0024708D02*
X0024541D01*
X0024361Y0041056D02*
X0024194D01*
X0024361Y0040945D02*
Y0041112D01*
X0024298Y0041278D01*
X0024256D01*
X0024194Y0041112D01*
Y0040945D01*
X0022661Y0049395D02*
X0022328D01*
X0022661Y0049374D02*
Y0049499D01*
X0022550Y0049541D01*
X0022439D01*
X0022328Y0049499D01*
Y0049374D01*
X0022439Y0049193D02*
X0022494Y0049172D01*
X0022606Y0049089D01*
X0022661Y0049068D01*
Y0049193D02*
X0022606Y0049172D01*
X0022494Y0049089D01*
X0022439Y0049068D01*
X0022494Y0048825D02*
X0022661Y0048887D01*
X0022494Y0048721D02*
Y0048846D01*
X0022439Y0048887D01*
X0022383D01*
X0022328Y0048846D01*
Y0048721D01*
X0022661D01*
X0021661Y0049395D02*
X0021328D01*
X0021661Y0049374D02*
Y0049499D01*
X0021550Y0049541D01*
X0021439D01*
X0021328Y0049499D01*
Y0049374D01*
X0021439Y0049193D02*
X0021494Y0049172D01*
X0021606Y0049089D01*
X0021661Y0049068D01*
Y0049193D02*
X0021606Y0049172D01*
X0021494Y0049089D01*
X0021439Y0049068D01*
X0021661Y0048804D02*
X0021328D01*
Y0048887D02*
Y0048721D01*
X0020661Y0049436D02*
X0020328D01*
X0020661Y0049416D02*
Y0049541D01*
X0020550Y0049582D01*
X0020439D01*
X0020328Y0049541D01*
Y0049416D01*
Y0049235D02*
X0020661D01*
X0020606Y0049193D01*
X0020383Y0049110D01*
X0020328Y0049068D01*
X0020661D01*
X0020494Y0048804D02*
Y0048887D01*
X0020606D01*
X0020661Y0048866D01*
Y0048741D01*
X0020606Y0048721D01*
X0020383D01*
X0020328Y0048741D01*
Y0048866D01*
X0020383Y0048887D01*
X0019606Y0049582D02*
X0019661Y0049561D01*
Y0049436D01*
X0019606Y0049416D01*
X0019383D01*
X0019328Y0049436D01*
Y0049561D01*
X0019383Y0049582D01*
X0019606Y0049235D02*
X0019661Y0049214D01*
Y0049089D01*
X0019606Y0049068D01*
X0019383D01*
X0019328Y0049089D01*
Y0049214D01*
X0019383Y0049235D01*
X0019328Y0048887D02*
X0019439D01*
X0019661Y0048804D01*
X0019439Y0048721D01*
X0019328D01*
X0014661Y0051186D02*
X0014328D01*
X0014661Y0051166D02*
Y0051291D01*
X0014550Y0051332D01*
X0014439D01*
X0014328Y0051291D01*
Y0051166D01*
Y0050985D02*
X0014661D01*
X0014606Y0050943D01*
X0014383Y0050860D01*
X0014328Y0050818D01*
X0014661D01*
X0014494Y0050554D02*
Y0050637D01*
X0014606D01*
X0014661Y0050616D01*
Y0050491D01*
X0014606Y0050471D01*
X0014383D01*
X0014328Y0050491D01*
Y0050616D01*
X0014383Y0050637D01*
X0013661Y0051305D02*
X0013606Y0051291D01*
X0013383D01*
X0013328Y0051305D01*
Y0051388D01*
X0013383Y0051402D01*
X0013606D01*
X0013661Y0051388D01*
Y0051305D01*
X0013383Y0051117D02*
X0013328Y0051103D01*
Y0051020D01*
X0013383Y0051006D01*
X0013439D01*
X0013494Y0051020D01*
Y0051103D01*
X0013550Y0051117D01*
X0013606D01*
X0013661Y0051103D01*
Y0051020D01*
X0013606Y0051006D01*
X0013661Y0050832D02*
Y0050777D01*
Y0050804D02*
X0013328D01*
Y0050832D02*
Y0050777D01*
X0013661Y0050575D02*
X0013328D01*
X0013383Y0050547D01*
X0013494Y0050519D01*
X0013383Y0050492D01*
X0013328Y0050464D01*
X0013661D01*
X0012661Y0051332D02*
X0012494Y0051207D01*
X0012328Y0051332D01*
Y0051166D02*
X0012661D01*
X0012606Y0050985D02*
X0012661Y0050964D01*
Y0050839D01*
X0012606Y0050818D01*
X0012383D01*
X0012328Y0050839D01*
Y0050964D01*
X0012383Y0050985D01*
Y0050637D02*
X0012328Y0050616D01*
Y0050491D01*
X0012383Y0050471D01*
X0012439D01*
X0012494Y0050491D01*
Y0050616D01*
X0012550Y0050637D01*
X0012606D01*
X0012661Y0050616D01*
Y0050491D01*
X0012606Y0050471D01*
X0011661Y0051402D02*
Y0051347D01*
Y0051374D02*
X0011328D01*
Y0051402D02*
Y0051347D01*
X0011383Y0051145D02*
X0011328Y0051131D01*
Y0051048D01*
X0011383Y0051034D01*
X0011439D01*
X0011494Y0051048D01*
Y0051131D01*
X0011550Y0051145D01*
X0011606D01*
X0011661Y0051131D01*
Y0051048D01*
X0011606Y0051034D01*
X0011661Y0050763D02*
X0011606Y0050749D01*
X0011383D01*
X0011328Y0050763D01*
Y0050846D01*
X0011383Y0050860D01*
X0011606D01*
X0011661Y0050846D01*
Y0050763D01*
Y0050575D02*
X0011328D01*
X0011383Y0050547D01*
X0011494Y0050519D01*
X0011383Y0050492D01*
X0011328Y0050464D01*
X0011661D01*
X0010383Y0050985D02*
X0010328Y0050964D01*
Y0050839D01*
X0010383Y0050818D01*
X0010439D01*
X0010494Y0050839D01*
Y0050964D01*
X0010550Y0050985D01*
X0010606D01*
X0010661Y0050964D01*
Y0050839D01*
X0010606Y0050818D01*
Y0050637D02*
X0010661Y0050616D01*
Y0050491D01*
X0010606Y0050471D01*
X0010383D01*
X0010328Y0050491D01*
Y0050616D01*
X0010383Y0050637D01*
X0009606Y0051332D02*
X0009661Y0051311D01*
Y0051186D01*
X0009606Y0051166D01*
X0009383D01*
X0009328Y0051186D01*
Y0051311D01*
X0009383Y0051332D01*
X0009606Y0050985D02*
X0009661Y0050964D01*
Y0050839D01*
X0009606Y0050818D01*
X0009383D01*
X0009328Y0050839D01*
Y0050964D01*
X0009383Y0050985D01*
X0009328Y0050637D02*
X0009439D01*
X0009661Y0050554D01*
X0009439Y0050471D01*
X0009328D01*
X0021161Y0034849D02*
X0021286D01*
X0021307Y0034794D01*
Y0034738D01*
X0021286Y0034683D01*
X0021161D01*
X0021140Y0034738D01*
Y0034794D01*
X0021223Y0035016D01*
X0020813Y0034849D02*
X0020938D01*
X0020959Y0034794D01*
Y0034738D01*
X0020938Y0034683D01*
X0020813D01*
X0020792Y0034738D01*
Y0034794D01*
X0020876Y0035016D01*
X0020507Y0034683D02*
X0020466Y0034738D01*
X0020445Y0034794D01*
Y0034905D01*
X0020466Y0034960D01*
X0020507Y0035016D01*
X0020549D01*
X0020591Y0034960D01*
X0020612Y0034905D01*
Y0034794D01*
X0020591Y0034738D01*
X0020549Y0034683D01*
X0020507D01*
X0020264Y0034794D02*
X0020097D01*
X0020181Y0035016D01*
X0020222D01*
Y0034683D01*
X0021695Y0051795D02*
X0021550D01*
Y0052128D01*
X0021369Y0051906D02*
X0021202D01*
X0021369Y0051795D02*
Y0051962D01*
X0021306Y0052128D01*
X0021265D01*
X0021202Y0051962D01*
Y0051795D01*
X0021021D02*
X0020938D01*
X0020980D02*
Y0052128D01*
X0021021D02*
X0020938D01*
X0020653Y0051962D02*
X0020716Y0051795D01*
X0020549Y0051962D02*
X0020674D01*
X0020716Y0052017D01*
Y0052073D01*
X0020674Y0052128D01*
X0020549D01*
Y0051795D01*
X0020326Y0051962D02*
X0020201D01*
X0020368Y0051795D02*
X0020201D01*
Y0052128D01*
X0020368D01*
X0020021Y0052073D02*
X0020000Y0052128D01*
X0019875D01*
X0019854Y0052073D01*
Y0052017D01*
X0019875Y0051962D01*
X0020000D01*
X0020021Y0051906D01*
Y0051851D01*
X0020000Y0051795D01*
X0019875D01*
X0019854Y0051851D01*
X0005062Y0034483D02*
X0005041Y0034538D01*
Y0034760D01*
X0005062Y0034816D01*
X0005187D01*
X0005208Y0034760D01*
Y0034538D01*
X0005187Y0034483D01*
X0005062D01*
X0004860Y0034760D02*
X0004839Y0034816D01*
X0004714D01*
X0004693Y0034760D01*
Y0034705D01*
X0004714Y0034649D01*
X0004839D01*
X0004860Y0034594D01*
Y0034538D01*
X0004839Y0034483D01*
X0004714D01*
X0004693Y0034538D01*
X0004513Y0034816D02*
X0004388Y0034483D01*
X0004061D02*
X0004186Y0034816D01*
X0004019D01*
X0003818Y0034649D02*
X0003693D01*
X0003672Y0034705D01*
Y0034760D01*
X0003693Y0034816D01*
X0003818D01*
X0003839Y0034760D01*
Y0034705D01*
X0003755Y0034483D01*
X0003491D02*
X0003408D01*
X0003450D02*
Y0034816D01*
X0003408Y0034760D01*
X0003186D02*
X0003165Y0034816D01*
X0003040D01*
X0003019Y0034760D01*
Y0034705D01*
X0003040Y0034649D01*
X0003165D01*
X0003186Y0034594D01*
Y0034538D01*
X0003165Y0034483D01*
X0003040D01*
X0003019Y0034538D01*
X0002838Y0034483D02*
X0002692D01*
Y0034816D01*
X0002512Y0034594D02*
X0002345D01*
X0002428Y0034816D01*
X0002470D01*
Y0034483D01*
X0002039D02*
X0002164Y0034816D01*
X0001997D01*
X0010936Y0026611D02*
X0010803D01*
X0010936Y0026789D01*
Y0026833D01*
X0010920Y0026878D01*
X0010820D01*
X0010803Y0026833D01*
X0010626Y0026611D02*
X0010560D01*
X0010593D02*
Y0026878D01*
X0010560Y0026833D01*
X0010233Y0026611D02*
Y0026878D01*
X0010216Y0026611D02*
X0010316D01*
X0010350Y0026700D01*
Y0026789D01*
X0010316Y0026878D01*
X0010216D01*
X0010719Y0045565D02*
Y0045899D01*
X0010698Y0045565D02*
X0010823D01*
X0010865Y0045677D01*
Y0045788D01*
X0010823Y0045899D01*
X0010698D01*
X0010475Y0045732D02*
X0010350D01*
Y0045565D02*
Y0045899D01*
X0010517D01*
X0010003Y0045732D02*
X0010128D01*
X0010170Y0045788D01*
Y0045843D01*
X0010128Y0045899D01*
X0010003D01*
Y0045565D01*
X0009822D02*
X0009655D01*
X0009822Y0045788D01*
Y0045843D01*
X0009801Y0045899D01*
X0009676D01*
X0009655Y0045843D01*
X0009475Y0045565D02*
X0009308D01*
X0009475Y0045788D01*
Y0045843D01*
X0009454Y0045899D01*
X0009329D01*
X0009308Y0045843D01*
X0020419Y0045715D02*
Y0046049D01*
X0020398Y0045715D02*
X0020523D01*
X0020565Y0045827D01*
Y0045938D01*
X0020523Y0046049D01*
X0020398D01*
X0020175Y0045882D02*
X0020050D01*
Y0045715D02*
Y0046049D01*
X0020217D01*
X0019703Y0045882D02*
X0019828D01*
X0019870Y0045938D01*
Y0045993D01*
X0019828Y0046049D01*
X0019703D01*
Y0045715D01*
X0019522D02*
X0019355D01*
X0019522Y0045938D01*
Y0045993D01*
X0019501Y0046049D01*
X0019376D01*
X0019355Y0045993D01*
X0019175Y0045715D02*
X0019008D01*
X0019175Y0045938D01*
Y0045993D01*
X0019154Y0046049D01*
X0019029D01*
X0019008Y0045993D01*
X0031629Y0038595D02*
Y0038484D01*
X0031545Y0038262D01*
X0031462Y0038484D01*
Y0038595D01*
X0031135Y0038429D02*
X0031260D01*
X0031281Y0038373D01*
Y0038318D01*
X0031260Y0038262D01*
X0031135D01*
X0031115Y0038318D01*
Y0038373D01*
X0031198Y0038595D01*
X0030934Y0038262D02*
X0030851D01*
X0030892D02*
Y0038595D01*
X0030851Y0038540D01*
X0030628Y0038484D02*
X0030545D01*
X0030524Y0038429D01*
X0030545Y0038373D01*
X0030628D01*
Y0038540D01*
X0030586Y0038595D01*
X0030503D01*
X0030461Y0038484D01*
Y0038373D01*
X0030503Y0038262D01*
X0030628D01*
X0030176D02*
X0030135Y0038318D01*
X0030114Y0038373D01*
Y0038484D01*
X0030135Y0038540D01*
X0030176Y0038595D01*
X0030218D01*
X0030260Y0038540D01*
X0030281Y0038484D01*
Y0038373D01*
X0030260Y0038318D01*
X0030218Y0038262D01*
X0030176D01*
X0029933D02*
X0029850D01*
X0029892D02*
Y0038595D01*
X0029850Y0038540D01*
X0004529Y0040445D02*
Y0040334D01*
X0004445Y0040112D01*
X0004362Y0040334D01*
Y0040445D01*
X0004035Y0040279D02*
X0004160D01*
X0004181Y0040223D01*
Y0040168D01*
X0004160Y0040112D01*
X0004035D01*
X0004015Y0040168D01*
Y0040223D01*
X0004098Y0040445D01*
X0003834Y0040112D02*
X0003751D01*
X0003792D02*
Y0040445D01*
X0003751Y0040390D01*
X0003528Y0040334D02*
X0003445D01*
X0003424Y0040279D01*
X0003445Y0040223D01*
X0003528D01*
Y0040390D01*
X0003486Y0040445D01*
X0003403D01*
X0003361Y0040334D01*
Y0040223D01*
X0003403Y0040112D01*
X0003528D01*
X0003076D02*
X0003035Y0040168D01*
X0003014Y0040223D01*
Y0040334D01*
X0003035Y0040390D01*
X0003076Y0040445D01*
X0003118D01*
X0003160Y0040390D01*
X0003181Y0040334D01*
Y0040223D01*
X0003160Y0040168D01*
X0003118Y0040112D01*
X0003076D01*
X0002833D02*
X0002750D01*
X0002792D02*
Y0040445D01*
X0002750Y0040390D01*
X0032879Y0026295D02*
Y0026184D01*
X0032795Y0025962D01*
X0032712Y0026184D01*
Y0026295D01*
X0032385Y0026129D02*
X0032510D01*
X0032531Y0026073D01*
Y0026018D01*
X0032510Y0025962D01*
X0032385D01*
X0032365Y0026018D01*
Y0026073D01*
X0032448Y0026295D01*
X0032184Y0025962D02*
X0032101D01*
X0032142D02*
Y0026295D01*
X0032101Y0026240D01*
X0031878Y0026184D02*
X0031795D01*
X0031774Y0026129D01*
X0031795Y0026073D01*
X0031878D01*
Y0026240D01*
X0031836Y0026295D01*
X0031753D01*
X0031711Y0026184D01*
Y0026073D01*
X0031753Y0025962D01*
X0031878D01*
X0031426D02*
X0031385Y0026018D01*
X0031364Y0026073D01*
Y0026184D01*
X0031385Y0026240D01*
X0031426Y0026295D01*
X0031468D01*
X0031510Y0026240D01*
X0031531Y0026184D01*
Y0026073D01*
X0031510Y0026018D01*
X0031468Y0025962D01*
X0031426D01*
X0031183D02*
X0031100D01*
X0031142D02*
Y0026295D01*
X0031100Y0026240D01*
X0004329Y0023295D02*
Y0023184D01*
X0004245Y0022962D01*
X0004162Y0023184D01*
Y0023295D01*
X0003835Y0023129D02*
X0003960D01*
X0003981Y0023073D01*
Y0023018D01*
X0003960Y0022962D01*
X0003835D01*
X0003815Y0023018D01*
Y0023073D01*
X0003898Y0023295D01*
X0003634Y0022962D02*
X0003551D01*
X0003592D02*
Y0023295D01*
X0003551Y0023240D01*
X0003328Y0023184D02*
X0003245D01*
X0003224Y0023129D01*
X0003245Y0023073D01*
X0003328D01*
Y0023240D01*
X0003286Y0023295D01*
X0003203D01*
X0003161Y0023184D01*
Y0023073D01*
X0003203Y0022962D01*
X0003328D01*
X0002876D02*
X0002835Y0023018D01*
X0002814Y0023073D01*
Y0023184D01*
X0002835Y0023240D01*
X0002876Y0023295D01*
X0002918D01*
X0002960Y0023240D01*
X0002981Y0023184D01*
Y0023073D01*
X0002960Y0023018D01*
X0002918Y0022962D01*
X0002876D01*
X0002633D02*
X0002550D01*
X0002592D02*
Y0023295D01*
X0002550Y0023240D01*
X0014110Y0051782D02*
Y0052116D01*
X0014089Y0051782D02*
X0014214D01*
X0014256Y0051894D01*
Y0052005D01*
X0014214Y0052116D01*
X0014089D01*
X0013846Y0051949D02*
X0013908Y0051782D01*
X0013741Y0051949D02*
X0013866D01*
X0013908Y0052005D01*
Y0052060D01*
X0013866Y0052116D01*
X0013741D01*
Y0051782D01*
X0013561Y0051894D02*
X0013394D01*
X0013561Y0051782D02*
Y0051949D01*
X0013498Y0052116D01*
X0013456D01*
X0013394Y0051949D01*
Y0051782D01*
X0013213Y0051838D02*
X0013192Y0051782D01*
X0013067D01*
X0013046Y0051838D01*
Y0052060D01*
X0013067Y0052116D01*
X0013192D01*
X0013213Y0052060D01*
X0012866Y0051949D02*
X0012699D01*
X0012351D02*
X0012476D01*
X0012518Y0052005D01*
Y0052060D01*
X0012476Y0052116D01*
X0012351D01*
Y0051782D01*
X0012171D02*
Y0052116D01*
X0012129Y0052060D01*
X0012087Y0051949D01*
X0012046Y0052060D01*
X0012004Y0052116D01*
Y0051782D01*
X0011823Y0052116D02*
Y0051838D01*
X0011802Y0051782D01*
X0011677D01*
X0011656Y0051838D01*
Y0052116D01*
X0011330Y0051894D02*
Y0051838D01*
X0011351Y0051782D01*
X0011434D01*
X0011455Y0051838D01*
Y0052116D01*
X0011476D02*
X0011392D01*
X0011149Y0051671D02*
X0010982D01*
X0010656Y0051782D02*
Y0052116D01*
X0010635Y0051782D02*
X0010760D01*
X0010802Y0051894D01*
Y0052005D01*
X0010760Y0052116D01*
X0010635D01*
X0010454Y0052060D02*
X0010433Y0052116D01*
X0010308D01*
X0010287Y0052060D01*
Y0052005D01*
X0010308Y0051949D01*
X0010433D01*
X0010454Y0051894D01*
Y0051838D01*
X0010433Y0051782D01*
X0010308D01*
X0010287Y0051838D01*
X0016903Y0038011D02*
X0016836D01*
X0016870D02*
Y0038278D01*
X0016836Y0038233D01*
X0016626Y0038011D02*
X0016560D01*
X0016593D02*
Y0038278D01*
X0016560Y0038233D01*
X0016233Y0038011D02*
Y0038278D01*
X0016216Y0038011D02*
X0016316D01*
X0016350Y0038100D01*
Y0038189D01*
X0016316Y0038278D01*
X0016216D01*
X0020753Y0037961D02*
X0020720Y0038005D01*
X0020703Y0038050D01*
Y0038139D01*
X0020720Y0038183D01*
X0020753Y0038228D01*
X0020786D01*
X0020820Y0038183D01*
X0020836Y0038139D01*
Y0038050D01*
X0020820Y0038005D01*
X0020786Y0037961D01*
X0020753D01*
X0020526D02*
X0020460D01*
X0020493D02*
Y0038228D01*
X0020460Y0038183D01*
X0020133Y0037961D02*
Y0038228D01*
X0020116Y0037961D02*
X0020216D01*
X0020250Y0038050D01*
Y0038139D01*
X0020216Y0038228D01*
X0020116D01*
X0023693Y0038044D02*
X0023593D01*
X0023576Y0038089D01*
Y0038133D01*
X0023593Y0038178D01*
X0023693D01*
X0023710Y0038133D01*
Y0038089D01*
X0023643Y0037911D01*
X0023283D02*
Y0038178D01*
X0023266Y0037911D02*
X0023366D01*
X0023400Y0038000D01*
Y0038089D01*
X0023366Y0038178D01*
X0023266D01*
X0017943Y0044044D02*
X0017960Y0044089D01*
Y0044133D01*
X0017943Y0044178D01*
X0017843D01*
X0017826Y0044133D01*
Y0044089D01*
X0017843Y0044044D01*
X0017943D01*
X0017960Y0044000D01*
Y0043955D01*
X0017943Y0043911D01*
X0017843D01*
X0017826Y0043955D01*
Y0044000D01*
X0017843Y0044044D01*
X0017533Y0043911D02*
Y0044178D01*
X0017516Y0043911D02*
X0017616D01*
X0017650Y0044000D01*
Y0044089D01*
X0017616Y0044178D01*
X0017516D01*
X0019610Y0044711D02*
X0019710Y0044978D01*
X0019576D01*
X0019283Y0044711D02*
Y0044978D01*
X0019266Y0044711D02*
X0019366D01*
X0019400Y0044800D01*
Y0044889D01*
X0019366Y0044978D01*
X0019266D01*
X0020643Y0044894D02*
X0020743D01*
X0020760Y0044850D01*
Y0044805D01*
X0020743Y0044761D01*
X0020643D01*
X0020626Y0044805D01*
Y0044850D01*
X0020693Y0045028D01*
X0020333Y0044761D02*
Y0045028D01*
X0020316Y0044761D02*
X0020416D01*
X0020450Y0044850D01*
Y0044939D01*
X0020416Y0045028D01*
X0020316D01*
X0021576Y0032805D02*
X0021593Y0032761D01*
X0021693D01*
X0021710Y0032805D01*
Y0032894D01*
X0021676Y0032939D01*
X0021576D01*
Y0033028D01*
X0021710D01*
X0021283Y0032761D02*
Y0033028D01*
X0021266Y0032761D02*
X0021366D01*
X0021400Y0032850D01*
Y0032939D01*
X0021366Y0033028D01*
X0021266D01*
X0019710Y0026050D02*
X0019576D01*
X0019643Y0026228D01*
X0019676D01*
Y0025961D01*
X0019283D02*
Y0026228D01*
X0019266Y0025961D02*
X0019366D01*
X0019400Y0026050D01*
Y0026139D01*
X0019366Y0026228D01*
X0019266D01*
X0030176Y0022905D02*
X0030210Y0022861D01*
X0030276D01*
X0030310Y0022905D01*
Y0022950D01*
X0030243Y0023039D01*
X0030310Y0023128D01*
X0030176D01*
X0029883Y0022861D02*
Y0023128D01*
X0029866Y0022861D02*
X0029966D01*
X0030000Y0022950D01*
Y0023039D01*
X0029966Y0023128D01*
X0029866D01*
X0020210Y0024861D02*
X0020076D01*
X0020210Y0025039D01*
Y0025083D01*
X0020193Y0025128D01*
X0020093D01*
X0020076Y0025083D01*
X0019783Y0024861D02*
Y0025128D01*
X0019766Y0024861D02*
X0019866D01*
X0019900Y0024950D01*
Y0025039D01*
X0019866Y0025128D01*
X0019766D01*
X0021226Y0006111D02*
X0021160D01*
X0021193D02*
Y0006378D01*
X0021160Y0006333D01*
X0020833Y0006111D02*
Y0006378D01*
X0020816Y0006111D02*
X0020916D01*
X0020950Y0006200D01*
Y0006289D01*
X0020916Y0006378D01*
X0020816D01*
X0028864Y0041826D02*
X0028739Y0041993D01*
X0028864Y0042159D01*
X0028697D02*
Y0041826D01*
X0028412D02*
X0028370Y0041882D01*
X0028350Y0041937D01*
Y0042048D01*
X0028370Y0042104D01*
X0028412Y0042159D01*
X0028454D01*
X0028495Y0042104D01*
X0028516Y0042048D01*
Y0041937D01*
X0028495Y0041882D01*
X0028454Y0041826D01*
X0028412D01*
X0028169D02*
X0028086D01*
X0028127D02*
Y0042159D01*
X0028086Y0042104D01*
X0028778Y0046026D02*
Y0046360D01*
X0028757Y0046026D02*
X0028882D01*
X0028924Y0046138D01*
Y0046249D01*
X0028882Y0046360D01*
X0028757D01*
X0028534Y0046193D02*
X0028409D01*
Y0046026D02*
Y0046360D01*
X0028576D01*
X0028229D02*
Y0046082D01*
X0028208Y0046026D01*
X0028083D01*
X0028062Y0046082D01*
Y0046360D01*
X0027881Y0046026D02*
X0027798D01*
X0027840D02*
Y0046360D01*
X0027798Y0046304D01*
X0027471Y0046026D02*
X0027430Y0046082D01*
X0027409Y0046138D01*
Y0046249D01*
X0027430Y0046304D01*
X0027471Y0046360D01*
X0027513D01*
X0027555Y0046304D01*
X0027576Y0046249D01*
Y0046138D01*
X0027555Y0046082D01*
X0027513Y0046026D01*
X0027471D01*
X0027187D02*
X0027228D01*
Y0046082D01*
X0027187D01*
Y0046026D01*
X0026860D02*
X0026818Y0046082D01*
X0026797Y0046138D01*
Y0046249D01*
X0026818Y0046304D01*
X0026860Y0046360D01*
X0026902D01*
X0026943Y0046304D01*
X0026964Y0046249D01*
Y0046138D01*
X0026943Y0046082D01*
X0026902Y0046026D01*
X0026860D01*
X0024282Y0004505D02*
X0024115D01*
X0024088Y0004561D01*
Y0004617D01*
X0024115Y0004672D01*
X0024282D01*
X0024310Y0004617D01*
Y0004561D01*
X0024199Y0004339D01*
X0023900D02*
X0023678D01*
X0023900Y0004561D01*
Y0004617D01*
X0023872Y0004672D01*
X0023705D01*
X0023678Y0004617D01*
X0010055Y0004332D02*
X0009944D01*
X0010000D02*
Y0004666D01*
X0009944Y0004610D01*
X0026165Y0010397D02*
Y0010730D01*
X0026144Y0010397D02*
X0026269D01*
X0026311Y0010453D01*
Y0010508D01*
X0026290Y0010564D01*
X0026165D02*
X0026290D01*
X0026311Y0010619D01*
Y0010675D01*
X0026269Y0010730D01*
X0026144D01*
X0025964Y0010564D02*
X0025797D01*
X0025616Y0010508D02*
X0025449D01*
X0025533Y0010730D01*
X0025574D01*
Y0010397D01*
X0025123Y0010564D02*
X0025248D01*
X0025269Y0010508D01*
Y0010453D01*
X0025248Y0010397D01*
X0025123D01*
X0025102Y0010453D01*
Y0010508D01*
X0025185Y0010730D01*
X0024921Y0010453D02*
X0024900Y0010397D01*
X0024775D01*
X0024754Y0010453D01*
Y0010675D01*
X0024775Y0010730D01*
X0024900D01*
X0024921Y0010675D01*
X0024553Y0010564D02*
X0024574Y0010619D01*
Y0010675D01*
X0024553Y0010730D01*
X0024428D01*
X0024407Y0010675D01*
Y0010619D01*
X0024428Y0010564D01*
X0024553D01*
X0024574Y0010508D01*
Y0010453D01*
X0024553Y0010397D01*
X0024428D01*
X0024407Y0010453D01*
Y0010508D01*
X0024428Y0010564D01*
X0024226Y0010397D02*
X0024059D01*
X0024226Y0010619D01*
Y0010675D01*
X0024205Y0010730D01*
X0024080D01*
X0024059Y0010675D01*
X0023795Y0010397D02*
Y0010730D01*
X0023879D02*
X0023712D01*
X0023531Y0010508D02*
X0023364D01*
X0023531Y0010397D02*
Y0010564D01*
X0023469Y0010730D01*
X0023427D01*
X0023364Y0010564D01*
Y0010397D01*
X0009819Y0010608D02*
X0009652D01*
X0009735Y0010830D01*
X0009777D01*
Y0010497D01*
X0009325Y0010664D02*
X0009450D01*
X0009471Y0010608D01*
Y0010553D01*
X0009450Y0010497D01*
X0009325D01*
X0009304Y0010553D01*
Y0010608D01*
X0009388Y0010830D01*
X0009124Y0010497D02*
X0008957D01*
X0009124Y0010719D01*
Y0010775D01*
X0009103Y0010830D01*
X0008978D01*
X0008957Y0010775D01*
X0008630Y0010664D02*
X0008755D01*
X0008776Y0010608D01*
Y0010553D01*
X0008755Y0010497D01*
X0008630D01*
X0008609Y0010553D01*
Y0010608D01*
X0008693Y0010830D01*
X0008429Y0010497D02*
Y0010830D01*
X0008387Y0010775D01*
X0008345Y0010664D01*
X0008304Y0010775D01*
X0008262Y0010830D01*
Y0010497D01*
X0008081Y0010664D02*
X0007914D01*
X0008081Y0010497D02*
Y0010830D01*
X0007914Y0010497D02*
Y0010830D01*
X0013848Y0031708D02*
Y0032041D01*
X0013827Y0031708D02*
X0013952D01*
X0013994Y0031763D01*
Y0031819D01*
X0013973Y0031874D01*
X0013848D02*
X0013973D01*
X0013994Y0031930D01*
Y0031985D01*
X0013952Y0032041D01*
X0013827D01*
X0013647Y0031874D02*
X0013480D01*
X0013278D02*
X0013299Y0031930D01*
Y0031985D01*
X0013278Y0032041D01*
X0013153D01*
X0013132Y0031985D01*
Y0031930D01*
X0013153Y0031874D01*
X0013278D01*
X0013299Y0031819D01*
Y0031763D01*
X0013278Y0031708D01*
X0013153D01*
X0013132Y0031763D01*
Y0031819D01*
X0013153Y0031874D01*
X0012952Y0032041D02*
Y0031930D01*
X0012868Y0031708D01*
X0012785Y0031930D01*
Y0032041D01*
X0012500Y0031708D02*
X0012458Y0031763D01*
X0012437Y0031819D01*
Y0031930D01*
X0012458Y0031985D01*
X0012500Y0032041D01*
X0012542D01*
X0012583Y0031985D01*
X0012604Y0031930D01*
Y0031819D01*
X0012583Y0031763D01*
X0012542Y0031708D01*
X0012500D01*
X0012257D02*
X0012090D01*
X0012257Y0031930D01*
Y0031985D01*
X0012236Y0032041D01*
X0012111D01*
X0012090Y0031985D01*
X0011867Y0031874D02*
X0011742D01*
Y0031708D02*
Y0032041D01*
X0011909D01*
X0011478Y0031708D02*
Y0032041D01*
X0011562D02*
X0011395D01*
X0011214Y0031819D02*
X0011047D01*
X0011214Y0031708D02*
Y0031874D01*
X0011152Y0032041D01*
X0011110D01*
X0011047Y0031874D01*
Y0031708D01*
X0023875Y0042000D02*
Y0041000D01*
Y0040500D01*
X0010125D01*
Y0042500D01*
X0023875D01*
Y0042000D01*
X0023625D01*
Y0041000D01*
X0023875D01*
X0021500Y0036000D02*
Y0036500D01*
X0028500D01*
Y0034500D01*
X0021500D01*
Y0036000D01*
X0021750D01*
Y0035000D01*
X0021500D01*
X0023125Y0048500D02*
X0018875D01*
Y0051500D01*
X0023125D01*
Y0048500D01*
X0018875Y0050750D02*
X0023125D01*
X0023187Y0051563D02*
X0023125Y0051501D01*
Y0051500D01*
X0005500Y0036000D02*
Y0036500D01*
X0012500D01*
Y0034500D01*
X0005500D01*
Y0036000D01*
X0005750D01*
Y0035000D01*
X0005500D01*
X0026875Y0042500D02*
Y0043500D01*
X0029125D01*
Y0042500D01*
X0026875D01*
X0029125Y0043000D02*
X0029500D01*
X0026500D02*
X0026875D01*
X0012550Y0044300D02*
X0017450D01*
Y0046200D01*
X0012550D01*
Y0044300D01*
X0025750Y0044625D02*
Y0044375D01*
X0028250D01*
Y0044625D01*
Y0045375D02*
Y0045625D01*
X0025750D01*
Y0045375D01*
X0024500Y0026000D02*
X0025500D01*
X0027500D01*
Y0011000D01*
X0022500D01*
Y0026000D01*
X0024500D01*
Y0025750D01*
X0025500D01*
Y0026000D01*
X0008500D02*
X0009500D01*
X0011500D01*
Y0011000D01*
X0006500D01*
Y0026000D01*
X0008500D01*
Y0025750D01*
X0009500D01*
Y0026000D01*
X0011000Y0030500D02*
Y0029000D01*
Y0028500D01*
X0023000D01*
Y0030500D01*
X0011000D01*
Y0030000D02*
X0011250D01*
Y0029000D01*
X0011000D01*
X0012250Y0046750D02*
X0011250D01*
Y0044750D01*
X0012250D01*
Y0046750D01*
X0018750D02*
X0017750D01*
Y0044750D01*
X0018750D01*
Y0046750D01*
X0008875Y0051500D02*
X0015125D01*
Y0048500D01*
X0008875D01*
Y0051500D01*
X0015125Y0049250D02*
X0008875D01*
X0008813Y0048437D02*
X0008875Y0048499D01*
Y0048500D01*
G01X0030750Y0040750D02*
G03X0029750Y0039750I0000000J0001000D01*
G03X0030750Y0038750I0001000J0000000D01*
G03X0031750Y0039750I0000000J0001000D01*
G03X0030750Y0040750I0001000J0000000D01*
G01X0003750Y0042750D02*
G03X0002750Y0041750I0000000J0001000D01*
G03X0003750Y0040750I0001000J0000000D01*
G03X0004750Y0041750I0000000J0001000D01*
G03X0003750Y0042750I0001000J0000000D01*
G01X0030500Y0025750D02*
G03X0029500Y0024750I0000000J0001000D01*
G03X0030500Y0023750I0001000J0000000D01*
G03X0031500Y0024750I0000000J0001000D01*
G03X0030500Y0025750I0001000J0000000D01*
G01X0003500Y0025500D02*
G03X0002500Y0024500I0000000J0001000D01*
G03X0003500Y0023500I0001000J0000000D01*
G03X0004500Y0024500I0000000J0001000D01*
G03X0003500Y0025500I0001000J0000000D01*
G54D49*
G01X0000150Y0009000D02*
X0006750D01*
X0009250Y0006500D01*
Y0000000D01*
X0024750D01*
Y0006500D01*
X0027250Y0009000D01*
X0033850D01*
Y0055000D01*
X0000150D01*
Y0009000D01*
G54D52*
G01X0014950Y0053467D02*
X0014283D01*
X0014950Y0054133D01*
Y0054300D01*
X0014867Y0054467D01*
X0014367D01*
X0014283Y0054300D01*
X0013900Y0054133D02*
X0013567Y0053467D01*
X0013233Y0054133D01*
X0012267Y0053467D02*
Y0054467D01*
X0012183Y0053467D02*
X0012683D01*
X0012850Y0053800D01*
Y0054133D01*
X0012683Y0054467D01*
X0012183D01*
X0011800Y0054300D02*
X0011717Y0054467D01*
X0011217D01*
X0011133Y0054300D01*
Y0054133D01*
X0011217Y0053967D01*
X0011717D01*
X0011800Y0053800D01*
Y0053633D01*
X0011717Y0053467D01*
X0011217D01*
X0011133Y0053633D01*
X0010750Y0053467D02*
X0010083D01*
X0010750Y0054133D01*
Y0054300D01*
X0010667Y0054467D01*
X0010167D01*
X0010083Y0054300D01*
X0009533Y0053967D02*
X0009033D01*
Y0053467D02*
Y0054467D01*
X0009700D01*
X0007983Y0053967D02*
X0008483D01*
X0008650Y0054133D01*
Y0054300D01*
X0008483Y0054467D01*
X0007983D01*
Y0053467D01*
X0007600Y0053800D02*
X0006933D01*
X0007600Y0053467D02*
Y0053967D01*
X0007350Y0054467D01*
X0007183D01*
X0006933Y0053967D01*
Y0053467D01*
X0024767Y0053683D02*
X0024933Y0053517D01*
X0025267D01*
X0025433Y0053683D01*
Y0053850D01*
X0025100Y0054183D01*
X0025433Y0054517D01*
X0024767D01*
X0024383Y0053517D02*
X0024050D01*
X0024217D02*
Y0054517D01*
X0024050Y0054350D01*
X0023083Y0053517D02*
X0022917Y0053683D01*
X0022833Y0053850D01*
Y0054183D01*
X0022917Y0054350D01*
X0023083Y0054517D01*
X0023250D01*
X0023417Y0054350D01*
X0023500Y0054183D01*
Y0053850D01*
X0023417Y0053683D01*
X0023250Y0053517D01*
X0023083D01*
X0022450D02*
X0021783D01*
X0022450Y0054183D01*
Y0054350D01*
X0022367Y0054517D01*
X0021867D01*
X0021783Y0054350D01*
X0021400Y0054017D02*
X0020733D01*
X0020350Y0054183D02*
X0020017Y0053517D01*
X0019683Y0054183D01*
X0018717Y0053517D02*
X0018633Y0053683D01*
Y0054017D01*
X0018717Y0054183D01*
X0019217D01*
X0019300Y0054017D01*
Y0053683D01*
X0019217Y0053517D01*
X0018717D01*
X0018250Y0054517D02*
Y0053517D01*
X0018083Y0053683D01*
X0017750Y0054350D01*
X0017583Y0054517D01*
Y0053517D01*
M02*
